# Alias OBJ Model File
# Exported from SketchUp, (c) 2000-2012 Trimble Navigation Limited
# File units = millimeters

mtllib Ames Window.mtl

g Mesh1 Model

usemtl FrontColor
v 39 0 -0
vt -1.53543 2.61811e-31
vn 2.7784e-16 -6.13707e-16 -1
v 49.1292 4.62506 -2.41369e-17
vt -1.93422 0.182089
v 42.1292 1.37733 2.41378e-17
vt -1.65863 0.0542255
f 1/1/1 2/2/1 3/3/1

usemtl Color_M06
v 54 93.0406 -1.39985e-16
vt -2.12598 3.66301
vn -4.95577e-18 -7.11493e-19 -1
v 54 6.88493 -3.40433e-17
vt -2.12598 0.27106
vt -1.53543 -5.41393e-36
v 39 0.0902365 -0
vt -1.53543 0.00355262
v 39 100 -0
vt -1.53543 3.93701
v 45.8055 96.8425 -1.27022e-16
vt -1.80337 3.8127
f 4/4/2 5/5/2 2/2/2 1/6/2 6/7/2 7/8/2 8/9/2 

usemtl FrontColor
v 38.8058 0.153349 1.81227e-18
vt -1.52779 0.00603737
vn 4.64658e-21 -8.3113e-21 -1
f 9/10/3 7/8/3 6/7/3

v 32 8.41039 -0
vt -1.25984 0.331118
f 7/8/3 9/10/3 10/11/3

v -61 32.5902 -0
vt 2.40157 1.28308
f 11/12/3 10/11/3 9/10/3

v 0 18.0104 -0
vt 0 0.70907
f 10/11/3 11/12/3 12/13/3

v -6 19.8104 -0
vt 0.23622 0.779937
f 12/13/3 11/12/3 13/14/3

v -31 27.3104 -0
vt 1.22047 1.07521
f 13/14/3 11/12/3 14/15/3

v -36 28.8104 -0
vt 1.41732 1.13427
f 14/15/3 11/12/3 15/16/3

v -56 34.8104 -0
vt 2.20472 1.37049
f 15/16/3 11/12/3 16/17/3

v -61 67.5 -0
vt 2.40157 2.65748
f 16/17/3 11/12/3 17/18/3

v -56 47.0902 -0
vt 2.20472 1.85395
f 16/17/3 17/18/3 18/19/3

v -56 53 -0
vt 2.20472 2.08661
f 18/19/3 17/18/3 19/20/3

v -56 65.2798 -0
vt 2.20472 2.57007
f 19/20/3 17/18/3 20/21/3

v -36 71.2798 -0
vt 1.41732 2.80629
f 20/21/3 17/18/3 21/22/3

f 21/22/3 17/18/3 7/8/3

v -31 72.7798 -0
vt 1.22047 2.86535
f 21/22/3 7/8/3 22/23/3

v -6 80.2798 -0
vt 0.23622 3.16062
f 22/23/3 7/8/3 23/24/3

v 2.75116e-15 82.0798 -0
vt -1.08313e-16 3.23149
f 23/24/3 7/8/3 24/25/3

v 32 91.6798 -0
vt -1.25984 3.60944
f 24/25/3 7/8/3 25/26/3

v 32 86.3639 9.78035e-17
vt -1.25984 3.40015
f 7/8/3 26/27/3 25/26/3

v 32 53 3.20608e-18
vt -1.25984 2.08661
f 7/8/3 27/28/3 26/27/3

v 32 47.0902 5.57349e-18
vt -1.25984 1.85395
f 7/8/3 28/29/3 27/28/3

v 32 13.7263 9.79661e-17
vt -1.25984 0.540407
f 7/8/3 29/30/3 28/29/3

f 7/8/3 10/11/3 29/30/3

usemtl Color_M06
vn 4.12035e-18 8.76536e-18 -1
v 7 20.6582 -6.32424e-18
vt -0.275591 0.813314
f 10/11/4 12/13/4 30/31/4 29/30/4 

v 7 47.0902 7.70965e-19
vt -0.275591 1.85395
vn -4.19631e-19 1.21441e-19 -1
v 0 47.0902 -0
vt 0 1.85395
f 31/32/5 30/31/5 12/13/5 32/33/5 

usemtl FrontColor
f 13/14/3 32/33/3 12/13/3

v -6 24.2627 -3.31571e-17
vt 0.23622 0.955225
f 32/33/3 13/14/3 33/34/3

usemtl Color_M06
vn -5.2109e-18 -2.89911e-17 -1
v -25 29.5309 -2.03442e-16
vt 0.984252 1.16263
f 13/14/6 14/15/6 34/35/6 33/34/6 

v -25 47.0902 1.28832e-17
vt 0.984252 1.85395
vn -1.68846e-17 5.42978e-18 -1
v -31 47.0902 -0
vt 1.22047 1.85395
f 35/36/7 34/35/7 14/15/7 36/37/7 

usemtl FrontColor
f 15/16/3 36/37/3 14/15/3

v -36 32.5809 -9.77786e-17
vt 1.41732 1.28271
f 36/37/3 15/16/3 37/38/3

usemtl Color_M06
vn -1.30375e-17 -6.71179e-17 -1
v -51 36.6127 -3.54821e-16
vt 2.00787 1.44144
v -51 36.74 -2.8328e-16
vt 2.00787 1.44646
f 15/16/8 16/17/8 38/39/8 39/40/8 37/38/8 

v -51 47.0902 -4.38655e-18
vt 2.00787 1.85395
vn -4.04532e-17 1.4821e-17 -1
f 40/41/9 39/40/9 38/39/9 16/17/9 18/19/9 

usemtl FrontColor
f 18/19/3 19/20/3 40/41/3

v -51 53 -3.84979e-18
vt 2.00787 2.08661
f 41/42/3 40/41/3 19/20/3

v -36 47.0902 -4.77707e-17
vt 1.41732 1.85395
f 41/42/3 42/43/3 40/41/3

f 42/43/3 41/42/3 36/37/3

f 36/37/3 41/42/3 35/36/3

v -6 47.0902 -3.52862e-17
vt 0.23622 1.85395
f 35/36/3 41/42/3 43/44/3

f 43/44/3 41/42/3 32/33/3

f 32/33/3 41/42/3 31/32/3

f 31/32/3 41/42/3 28/29/3

f 27/28/3 28/29/3 41/42/3

v -36 53 -3.07983e-17
vt 1.41732 2.08661
f 27/28/3 41/42/3 44/45/3

v -31 53 -0
vt 1.22047 2.08661
f 27/28/3 44/45/3 45/46/3

v -36 67.5093 -4.36325e-17
vt 1.41732 2.65785
f 46/47/3 45/46/3 44/45/3

f 45/46/3 46/47/3 22/23/3

f 22/23/3 46/47/3 21/22/3

usemtl Color_M06
vn -8.16014e-18 4.74587e-17 -1
v -51 63.3503 -2.8328e-16
vt 2.00787 2.4941
f 46/47/10 47/48/10 20/21/10 21/22/10 

vn -3.08767e-17 -1.12134e-17 -1
f 19/20/11 20/21/11 47/48/11 41/42/11 

vn -1.78984e-17 -5.10641e-18 -1
v -25 70.5593 -2.03442e-16
vt 0.984252 2.77793
v -25 53 -0
vt 0.984252 2.08661
f 45/46/12 22/23/12 48/49/12 49/50/12 

v -6 75.8275 -1.14963e-17
vt 0.23622 2.98534
vn -4.08696e-18 2.65548e-17 -1
f 50/51/13 48/49/13 22/23/13 23/24/13 

usemtl FrontColor
f 24/25/3 50/51/3 23/24/3

v 0 53 -0
vt 0 2.08661
f 51/52/3 50/51/3 24/25/3

v -6 53 -0
vt 0.23622 2.08661
f 50/51/3 51/52/3 52/53/3

f 27/28/3 52/53/3 51/52/3

f 27/28/3 49/50/3 52/53/3

f 27/28/3 45/46/3 49/50/3

v 7 53 3.50665e-19
vt -0.275591 2.08661
f 27/28/3 51/52/3 53/54/3

usemtl Color_M06
vn 1.81165e-19 3.00457e-20 -1
v 7 79.4321 2.10608e-18
vt -0.275591 3.12725
f 51/52/14 24/25/14 54/55/14 53/54/14 

vn 4.23989e-18 -9.61804e-18 -1
f 26/27/15 54/55/15 24/25/15 25/26/15 

usemtl FrontColor
f 32/33/3 33/34/3 43/44/3

f 36/37/3 37/38/3 42/43/3

vt 1.52779 0.00603737
vn 1.31766e-17 1.18286e-17 1
v 38.8055 0 3.6301e-18
vt 1.52778 -2.3981e-34
vt 1.53543 0.00355262
f 9/56/16 55/57/16 6/58/16

